<svg width="512" height="512" viewBox="0 0 512 512" fill="none" xmlns="http://www.w3.org/2000/svg">
<rect width="512" height="512" fill="#4E78A0"/>
<path d="M232.172 252.111L285.897 282.913L315.625 300.464C326.012 306.553 326.011 321.953 315.267 328.4L285.539 345.951L232.172 377.111L231.814 376.753V314.79L232.172 314.433L231.814 314.074L186.685 287.569C183.103 285.778 183.103 280.764 186.685 278.615L231.456 252.47L231.814 252.111H232.172ZM285.897 158.271L315.625 175.822C326.37 181.911 326.37 197.312 315.625 203.4L285.539 220.593L232.172 252.111L231.813 251.753L231.456 251.395L186.685 225.249C183.103 223.458 183.103 218.444 186.685 216.295L231.813 190.148L232.172 189.79L231.813 189.432V127.47L232.172 127.111L285.897 158.271Z" fill="#F7F7F7"/>
</svg>
