<svg width="512" height="512" viewBox="0 0 512 512" fill="none" xmlns="http://www.w3.org/2000/svg">
<rect width="512" height="512" fill="#231F20"/>
<g clip-path="url(#clip0_57_32)">
<path d="M292.051 258.641C289.365 263.539 284.615 265.94 277.85 265.94C275.163 265.94 272.86 264.98 270.941 263.107C269.022 261.234 267.967 259.169 267.679 257.008C266.575 251.342 267.535 243.418 270.509 233.238C273.484 223.057 274.683 216.622 274.156 213.933C274.156 212.06 273.052 211.1 270.893 211.1C265.232 211.1 259.139 217.055 252.614 228.964C246.137 240.873 242.874 254.703 242.874 270.454C242.874 293.217 250.743 304.598 266.431 304.598C281.065 304.598 293.155 296.818 302.798 281.211C312.394 265.652 317.24 247.836 317.24 227.763C317.24 208.795 312.634 192.804 303.422 179.79C294.21 166.776 280.537 160.293 262.401 160.293C240.763 160.293 222.484 171.05 207.563 192.612C192.69 214.173 185.205 237.944 185.205 263.972C185.205 287.022 191.634 306.182 204.492 321.501C217.35 336.82 236.925 344.456 263.169 344.456C289.413 344.456 308.364 337.204 323.285 322.702C338.158 308.199 345.882 292.688 346.41 276.169C352.887 276.169 358.117 278.33 362.051 282.652C365.985 286.974 367.952 292.688 367.952 299.748C367.952 310.024 366.369 319.532 363.298 328.224C360.18 336.916 354.95 345.416 347.657 353.82C340.365 362.224 329.186 368.851 314.169 373.749C299.152 378.647 281.065 381.048 259.954 381.048C238.844 381.048 221.764 377.735 206.363 371.108C190.915 364.481 178.872 355.453 170.236 344.071C161.552 332.69 155.219 320.493 151.141 307.479C147.063 294.465 145.048 280.779 145.048 266.421C145 223.826 155.747 190.643 177.289 166.776C198.831 142.909 226.898 131 261.586 131C289.748 131 311.003 139.548 325.348 156.595C339.693 173.643 346.89 194.244 346.89 218.399C346.89 245.243 339.117 269.302 323.525 290.575C307.98 311.849 288.261 322.51 264.416 322.51C227.042 322.51 208.378 302.725 208.378 263.155C208.378 237.416 214.472 218.927 226.658 207.69C238.844 196.453 254.149 190.835 272.572 190.835C280.681 190.835 286.63 193.14 290.42 197.75C294.21 202.36 296.082 207.114 296.082 211.964C296.082 214.653 295.122 219.84 293.251 227.427C291.38 235.015 290.084 241.113 289.413 245.723C288.741 250.333 289.605 254.655 292.051 258.737V258.641Z" fill="#F5F5F5"/>
</g>
<defs>
<clipPath id="clip0_57_32">
<rect width="223" height="250" fill="white" transform="translate(145 131)"/>
</clipPath>
</defs>
</svg>
