<svg width="512" height="512" viewBox="0 0 512 512" fill="none" xmlns="http://www.w3.org/2000/svg">
<rect width="512" height="512" fill="#231F20"/>
<g clip-path="url(#clip0_11_2)">
<path d="M343.877 322.228C342.674 313.168 338.986 304.348 332.972 296.811L323.752 306.032C328.081 311.885 330.567 318.62 331.289 325.516C335.618 325.355 339.948 324.233 343.877 322.228Z" fill="white"/>
<path d="M325.436 349.971C323.912 352.376 322.148 354.621 320.064 356.706C306.273 370.497 284.624 371.699 269.47 360.394L260.25 369.615C280.615 385.971 310.362 384.688 329.284 365.846C334.255 360.875 338.024 355.102 340.509 349.008C335.538 349.971 330.487 350.291 325.436 349.971Z" fill="white"/>
<path d="M296.651 306.914L305.791 316.055L316.054 305.792H315.974L336.26 285.506L352.616 269.23L343.476 260.089L326.718 276.847L306.433 297.132V297.052L296.651 306.914Z" fill="white"/>
<path d="M274.281 256L283.421 265.14L306.914 288.633L316.054 279.412L292.642 256L283.421 246.86L269.23 232.588L260.089 241.808L274.281 256Z" fill="white"/>
<path d="M240.525 289.836L223.447 306.914L232.587 316.055L256 292.642L265.14 283.421L279.332 269.23L270.192 260.089L260.731 269.55L240.525 289.836Z" fill="white"/>
<path d="M256 347.485L246.859 356.625C231.866 371.619 207.491 371.779 192.337 357.026L192.177 356.866C192.097 356.786 192.016 356.706 191.936 356.625C189.451 354.14 187.446 351.414 185.762 348.607C184.961 347.244 184.239 345.801 183.678 344.358C183.678 344.358 183.678 344.358 183.758 344.358C181.994 340.189 181.032 335.779 180.791 331.369C180.791 331.369 180.791 331.369 180.711 331.369C180.15 320.785 183.838 309.961 191.856 301.863L212.142 281.577L224.569 269.149L215.349 260.089L191.936 283.421L182.796 292.562C182.796 292.642 182.716 292.642 182.716 292.722C173.335 302.183 168.283 314.371 167.722 326.799V326.879C167.482 332.411 168.123 337.944 169.646 343.316C169.807 343.877 169.967 344.358 170.127 344.919C170.288 345.32 170.368 345.721 170.528 346.202C170.769 346.924 171.009 347.645 171.33 348.367C171.49 348.848 171.731 349.409 171.972 349.89C172.212 350.452 172.453 350.933 172.693 351.494C172.934 351.975 173.094 352.376 173.335 352.777C173.575 353.258 173.816 353.659 174.056 354.06C174.297 354.541 174.537 354.942 174.778 355.423C175.018 355.824 175.259 356.305 175.58 356.706C176.061 357.507 176.542 358.229 177.103 359.031C177.344 359.432 177.584 359.752 177.905 360.153C178.226 360.634 178.626 361.035 178.947 361.516C179.188 361.837 179.508 362.238 179.749 362.559C180.15 362.96 180.471 363.441 180.872 363.842C181.192 364.162 181.513 364.563 181.834 364.884C182.154 365.205 182.475 365.606 182.796 365.926C202.6 385.731 234.512 386.131 254.797 367.049L272.517 349.249L288.473 333.293L279.332 324.153L256 347.485Z" fill="white"/>
<path d="M162.03 325.436C159.624 323.912 157.379 322.148 155.294 320.064C141.504 306.273 140.301 284.624 151.606 269.47L142.386 260.25C126.029 280.615 127.312 310.362 146.154 329.284C151.125 334.255 156.898 338.024 162.992 340.509C162.03 335.538 161.709 330.487 162.03 325.436Z" fill="white"/>
<path d="M205.166 296.651L195.945 305.792L206.208 316.055V315.974L226.494 336.26L242.77 352.616L251.911 343.476L235.153 326.718L214.868 306.433H214.948L205.166 296.651Z" fill="white"/>
<path d="M189.771 343.877C198.832 342.674 207.652 338.986 215.188 332.972L205.968 323.752C200.115 328.081 193.38 330.647 186.484 331.289C186.725 335.618 187.767 339.948 189.771 343.877Z" fill="white"/>
<path d="M155.294 246.86C140.301 231.866 140.14 207.491 154.893 192.337L155.054 192.177C155.134 192.097 155.214 192.017 155.294 191.937C157.78 189.451 160.426 187.446 163.312 185.763C164.675 184.961 166.119 184.239 167.562 183.678C167.562 183.678 167.562 183.678 167.562 183.758C171.731 181.994 176.141 181.032 180.551 180.792C180.551 180.792 180.551 180.792 180.551 180.711C191.135 180.15 201.959 183.838 210.057 191.856L230.342 212.142L242.77 224.57L251.911 215.429L228.578 191.937L219.438 182.796C219.438 182.796 219.358 182.716 219.278 182.716C209.816 173.335 197.629 168.284 185.201 167.722H185.121C179.589 167.482 174.056 168.123 168.684 169.647C168.123 169.807 167.562 169.967 167.081 170.128C166.68 170.288 166.279 170.368 165.878 170.529C165.156 170.769 164.355 171.09 163.633 171.33C163.152 171.491 162.751 171.731 162.27 171.892C161.709 172.132 161.147 172.373 160.666 172.613C160.265 172.854 159.784 173.014 159.383 173.255C158.902 173.495 158.501 173.736 158.02 173.976C157.539 174.217 157.138 174.457 156.738 174.698C156.256 174.938 155.856 175.259 155.374 175.5C154.653 175.981 153.851 176.462 153.129 177.023C152.729 177.264 152.408 177.584 152.007 177.825C151.526 178.146 151.125 178.547 150.644 178.867C150.323 179.108 149.922 179.428 149.602 179.749C149.201 180.15 148.72 180.471 148.319 180.872C147.998 181.192 147.597 181.513 147.276 181.834C146.956 182.155 146.555 182.475 146.234 182.796C126.43 202.6 126.029 234.512 145.111 254.797L162.911 272.597L178.867 288.553L187.927 279.412L164.515 256L155.294 246.86Z" fill="white"/>
<path d="M168.123 189.772C169.326 198.832 173.014 207.652 179.027 215.189L188.248 205.968C183.918 200.115 181.353 193.38 180.711 186.404C176.382 186.725 172.132 187.767 168.123 189.772Z" fill="white"/>
<path d="M186.564 162.03C188.088 159.624 189.852 157.379 191.936 155.294C205.727 141.504 227.376 140.301 242.61 151.606L251.831 142.386C231.465 126.029 201.638 127.312 182.796 146.154C177.825 151.125 174.056 156.898 171.571 162.992C176.462 162.03 181.513 161.709 186.564 162.03Z" fill="white"/>
<path d="M222.565 240.846L205.086 223.447L195.945 232.588L219.358 256L228.578 265.14L242.85 279.412L251.991 270.272L242.85 261.131L222.565 240.846Z" fill="white"/>
<path d="M185.282 235.153L205.567 214.868V214.948L215.349 205.086L206.208 195.945L196.026 206.208L175.74 226.494L159.384 242.77L168.524 251.911L185.282 235.153Z" fill="white"/>
<path d="M349.97 186.564C352.376 188.088 354.621 189.852 356.706 191.936C370.496 205.727 371.699 227.376 360.394 242.53L369.614 251.75C385.971 231.385 384.688 201.638 365.846 182.716C360.875 177.745 355.102 173.976 349.008 171.491C349.97 176.462 350.291 181.513 349.97 186.564Z" fill="white"/>
<path d="M322.228 168.123C313.168 169.326 304.348 173.014 296.811 179.028L306.032 188.248C311.885 183.919 318.62 181.353 325.516 180.711C325.355 176.382 324.233 172.132 322.228 168.123Z" fill="white"/>
<path d="M269.23 159.384L260.089 168.524L276.847 185.282L297.132 205.567H297.052L306.914 215.349L316.054 206.208L305.791 196.026L285.506 175.74H285.586L269.23 159.384Z" fill="white"/>
<path d="M366.969 257.203L349.169 239.403L333.213 223.447L324.072 232.588L347.485 256L356.625 265.14C371.619 280.134 371.779 304.509 357.026 319.663L356.866 319.823C356.786 319.903 356.706 319.983 356.625 320.064C354.14 322.549 351.414 324.554 348.607 326.237C347.244 327.039 345.801 327.761 344.358 328.322C344.358 328.322 344.358 328.322 344.358 328.242C340.189 330.006 335.779 330.968 331.369 331.208V331.289C320.785 331.85 310.041 328.162 301.943 320.144L281.657 299.858L269.23 287.43L260.089 296.651L283.502 320.064L292.642 329.204C292.722 329.284 292.722 329.284 292.802 329.284C302.264 338.665 314.531 343.716 326.879 344.278C326.879 344.278 326.879 344.278 326.959 344.278C332.491 344.518 338.024 343.877 343.476 342.353C344.037 342.193 344.518 342.033 345.079 341.872C345.48 341.712 345.881 341.632 346.362 341.471C347.084 341.231 347.725 340.99 348.447 340.67C349.008 340.429 349.57 340.189 350.051 340.028C350.532 339.788 351.093 339.547 351.574 339.307C352.055 339.066 352.456 338.826 352.937 338.665C353.338 338.425 353.819 338.184 354.22 338.024C354.701 337.783 355.102 337.543 355.583 337.302C355.984 337.062 356.385 336.821 356.866 336.5C357.668 336.019 358.469 335.458 359.191 334.977C359.592 334.736 359.913 334.496 360.314 334.175C360.795 333.854 361.196 333.454 361.677 333.133C361.997 332.892 362.398 332.572 362.719 332.331C363.12 331.93 363.601 331.609 364.002 331.208C364.323 330.888 364.723 330.567 365.044 330.246C365.365 329.926 365.766 329.605 366.087 329.284C385.65 309.4 386.051 277.488 366.969 257.203Z" fill="white"/>
<path d="M279.412 195.945L256 219.358L246.859 228.579L232.587 242.851L241.728 251.991L256 237.719L265.14 228.579L288.633 205.086L279.412 195.945Z" fill="white"/>
<path d="M329.204 219.438C329.204 219.358 329.204 219.358 329.204 219.438C329.284 219.358 329.284 219.358 329.364 219.278C338.184 210.458 343.075 199.233 344.197 187.687V187.607C344.278 186.805 344.358 186.003 344.358 185.201C344.358 185.121 344.358 185.121 344.358 185.041C344.598 179.509 343.957 173.976 342.433 168.684C342.273 168.123 342.113 167.562 341.952 167.081C341.792 166.68 341.712 166.279 341.551 165.878C341.311 165.157 340.99 164.355 340.75 163.633C340.589 163.152 340.349 162.751 340.188 162.27C339.948 161.709 339.707 161.148 339.467 160.666C339.226 160.266 339.066 159.784 338.825 159.384C338.585 158.903 338.344 158.502 338.104 158.021C337.863 157.539 337.623 157.139 337.382 156.657C337.142 156.176 336.821 155.775 336.58 155.294C336.099 154.573 335.618 153.771 335.057 153.049C334.816 152.648 334.496 152.328 334.255 151.927C333.934 151.446 333.534 151.045 333.213 150.564C332.972 150.243 332.652 149.842 332.331 149.521C331.93 149.121 331.609 148.64 331.208 148.239C330.888 147.918 330.567 147.517 330.246 147.196C329.925 146.876 329.605 146.475 329.284 146.154C309.48 126.35 277.568 125.949 257.283 145.031L239.483 162.831L223.527 178.787L232.587 187.928L256 164.515L265.14 155.375C280.134 140.381 304.509 140.221 319.662 154.974L319.823 155.134C319.903 155.214 319.983 155.294 320.063 155.375C322.549 157.86 324.553 160.586 326.237 163.393C327.039 164.756 327.761 166.199 328.322 167.642C328.322 167.642 328.322 167.642 328.242 167.642C330.006 171.811 330.968 176.221 331.208 180.631C331.208 180.631 331.208 180.631 331.288 180.631C331.85 191.215 328.161 201.959 320.144 210.057L299.858 230.343L287.43 242.77L296.571 251.911L319.983 228.498L329.204 219.438Z" fill="white"/>
</g>
<defs>
<clipPath id="clip0_11_2">
<rect width="250" height="250" fill="white" transform="translate(131 131)"/>
</clipPath>
</defs>
</svg>
